<?xml version="1.0" encoding="utf-8"?>
<!-- Generator: Adobe Illustrator 24.1.1, SVG Export Plug-In . SVG Version: 6.00 Build 0)  -->
<svg version="1.1" id="Capa_1" xmlns="http://www.w3.org/2000/svg" xmlns:xlink="http://www.w3.org/1999/xlink" x="0px" y="0px"
	 viewBox="0 0 400 400" style="enable-background:new 0 0 400 400;" xml:space="preserve">
<style type="text/css">
	.st0{fill:#36A9E1;}
	.st1{fill:#F9B233;}
</style>
<g>
	<path class="st0" d="M116.05,80.31c-2.62-34.45,23.15-64.71,57.64-67.55c1.77-0.15,3.53-0.21,5.28-0.21
		c32.59,0.05,59.75,24.95,62.64,57.41l5.11-0.42c-3.09-37.5-36-65.39-73.49-62.3s-65.39,36-62.3,73.49L116.05,80.31z"/>
	<polygon class="st1" points="370.61,316.3 355.34,181.33 299.71,232.93 	"/>
	<polygon class="st1" points="266.16,252.16 287.57,231.92 354.1,170.38 343.38,75.55 266.16,81.92 	"/>
	<path class="st1" d="M292.97,239l-0.34,0.34l-26.47,22.77v28.16c30.1,8.24,45.86,26.89,51.23,48.02
		c41.02-6.54,57.88,19.4,60.34,41.11l-5.32-47.07L292.97,239z"/>
	<path class="st1" d="M22.28,102.03L30.47,393c5.74-30.31,42.75-43.11,61.39-39.29c1.46-8.59,4.36-15.03,7.96-19.81
		c-2.74-1.28-5.41-2.73-7.97-4.33c-12.2-7.65-21.67-18.36-28.42-32.13s-10.17-29.26-10.29-46.47v-8.09
		c0-17.43,3.34-33.09,10.03-46.97s16.13-24.71,28.33-32.47c12.2-7.76,26-11.64,41.41-11.64c15.29,0,29.01,3.77,41.15,11.3
		c12.15,7.53,21.62,18.21,28.42,32.04c6.8,13.83,10.26,29.41,10.37,46.72v8.09c0,13.81-2.06,26.46-6.17,37.96
		c7.42-1.47,14.96-2.19,22.52-2.15c9.34-0.06,18.66,0.74,27.86,2.4V82.67L22.28,102.03z"/>
	<path class="st1" d="M169.43,171.62c-10.73-7.14-22.9-10.71-36.51-10.71c-20.8,0-37.78,7.93-50.93,23.78s-19.73,35.81-19.73,59.87
		v5.4c0,15.18,3.01,29.09,9.02,41.74s14.39,22.51,25.13,29.6c3.35,2.22,6.9,4.11,10.61,5.64c2.97-2.05,6.31-3.53,9.82-4.36
		c11.56-2.99,26.68-1.06,35.49,6.83l0.69-0.2c1.46-4.04,11.11-27.55,42.13-38.2c5.72-12.36,8.58-26.67,8.6-42.94v-5.18
		c0-14.96-3.03-28.79-9.1-41.47C188.58,188.72,180.17,178.79,169.43,171.62z"/>
</g>
</svg>
