<svg width="59" height="24" viewBox="0 0 59 24" fill="none" xmlns="http://www.w3.org/2000/svg">
<path d="M1.3717 0.280792H6.48169C8.51863 0.280792 9.97077 0.695701 10.8381 1.52552C11.3826 2.05773 11.8071 2.69958 12.0832 3.40829C12.3593 4.117 12.4808 4.87628 12.4394 5.6355V9.49301C12.4394 10.7495 12.0803 11.5421 11.368 11.8827L10.0375 12.5344V12.6694C10.0375 12.6694 10.1258 12.9102 10.3024 13.3329C10.3604 13.5497 10.4671 13.7505 10.6144 13.92C10.7008 14.0257 11.368 16.5817 12.6161 21.5881L13.2048 23.7194H9.32515L7.19403 14.9417H4.83919V23.69H1.30694V14.243C1.30694 13.6558 0.918387 13.2037 0.129517 12.8691L0 12.7399V12.6048L0.930171 11.8063C1.16487 11.5546 1.29344 11.2224 1.28927 10.8787V0.36886C1.2932 0.310146 1.32068 0.280792 1.3717 0.280792ZM4.83919 3.91519V10.8317C4.83456 11.0135 4.80281 11.1935 4.745 11.366H7.01153C7.44714 11.3656 7.87052 11.2222 8.21631 10.958C8.5621 10.6938 8.81108 10.3234 8.92483 9.90401C8.95143 9.77243 8.96719 9.63889 8.97194 9.50475V5.73531C9.00556 5.34554 8.8982 4.95663 8.66929 4.63894C8.44037 4.32125 8.105 4.09576 7.72386 4.00325C7.47723 3.94332 7.22416 3.91375 6.97031 3.91519H4.83919Z" fill="#181245"/>
<path d="M13.7706 0.28067H17.1379V10.933C17.1379 11.4503 16.7451 11.9088 15.9537 12.3086L15.8695 12.4438V12.6202C16.717 13.0376 17.1379 13.5549 17.1379 14.1722V23.7193H13.7706V14.2192C13.7706 13.5608 13.3496 13.0434 12.5022 12.6202V12.3556C13.3496 11.95 13.7706 11.415 13.7706 10.7566V0.28067Z" fill="#181245"/>
<path d="M18.2617 0.28067H29.3593V3.87847H25.6008V10.8448C25.6008 11.4327 25.1859 11.9324 24.35 12.3086L24.2611 12.4438V12.5496C24.4943 12.7895 24.7669 12.9883 25.0673 13.1375C25.2194 13.2455 25.346 13.385 25.4381 13.5465C25.5303 13.7079 25.5858 13.8873 25.6008 14.0722V23.7193H22.0439V14.2604C22.0439 13.5431 21.5993 12.9964 20.7041 12.6202V12.4438C20.9847 12.1814 21.2998 11.958 21.6408 11.7795C21.7761 11.6365 21.8813 11.4683 21.9505 11.2846C22.0197 11.101 22.0515 10.9055 22.0439 10.7096V3.87847H18.2854L18.2617 0.28067Z" fill="#181245"/>
<path d="M30.4262 0.28067H35.4942C36.7676 6.80609 37.4609 10.4156 37.5741 11.1093C37.5741 11.5267 37.2226 11.9559 36.5137 12.3968C36.5137 12.5496 36.8535 12.7965 37.5331 13.1551C37.7536 13.3091 37.9331 13.5151 38.0557 13.755C38.1782 13.9948 38.2402 14.2612 38.2362 14.5308C38.4399 15.3509 38.6022 16.1809 38.7225 17.0175H38.7694C39.0897 15.2147 39.285 14.2231 39.3553 14.0428C39.3306 13.7294 39.2178 13.4294 39.0301 13.1776C38.8424 12.9258 38.5875 12.7325 38.2948 12.6202V12.4438L39.4666 11.6443C39.8216 11.2371 40.0282 10.721 40.0525 10.1805C41.2243 3.80792 41.8434 0.507982 41.9098 0.28067H46.7786V10.98C46.7786 11.609 46.3626 12.1087 45.5365 12.485L45.4486 12.6202V12.7084C45.7581 12.9651 46.0829 13.2026 46.4212 13.4197C46.6002 13.6214 46.7235 13.8667 46.7786 14.131V23.7193H43.2632V14.2192C43.2632 13.7136 42.8355 13.2257 41.9801 12.7554C41.971 12.6885 41.9401 12.6265 41.8922 12.579C42.1484 12.3208 42.4479 12.1099 42.7769 11.9559C42.9441 11.8118 43.0753 11.6304 43.1597 11.4262C43.2442 11.2219 43.2797 11.0006 43.2632 10.7801V9.13408H43.2164C42.9527 10.7625 42.7301 11.5738 42.5543 11.5738C42.5543 11.6855 42.1559 11.9559 41.3825 12.3733L41.2477 12.5555C41.2477 12.6554 41.4704 12.8788 41.9157 13.2198C42.1139 13.4425 42.2369 13.7223 42.2672 14.0193L40.1814 23.7193H37.3925C37.3163 23.7193 37.1581 23.0667 36.9062 21.7616L35.002 13.7724C34.6561 13.3239 34.1998 12.9734 33.6779 12.7554C33.5999 12.6932 33.5102 12.6472 33.4143 12.6202V12.4438C34.0002 11.9206 34.34 11.5796 34.34 11.4209C34.3682 11.3194 34.3839 11.2147 34.3869 11.1093L33.9884 9.20462H33.9416V10.8448C33.9416 11.4327 33.5607 11.9324 32.7698 12.3556L32.635 12.532V12.6202C32.9422 12.8798 33.2673 13.1175 33.6076 13.3315C33.812 13.5631 33.9227 13.8629 33.9181 14.1722V23.7193H30.4027V14.084C30.1205 13.5573 29.668 13.1426 29.1196 12.9082C29.1156 12.8626 29.1016 12.8185 29.0786 12.7789C29.0786 12.6966 29.4185 12.4321 30.0922 11.9794C30.2884 11.7069 30.3968 11.3808 30.4027 11.0447L30.4262 0.28067Z" fill="#181245"/>
<path d="M53.1561 0H53.6895C55.6628 0 57.2708 1.06536 58.5134 3.19608C58.8173 3.88135 58.9826 4.62019 58.9999 5.36989V10.9572C58.9999 11.5447 58.572 12.0617 57.7163 12.4671L57.6694 12.5552V12.6433C57.9719 12.9089 58.2975 13.1468 58.6424 13.3542C58.8735 13.5911 59.002 13.91 58.9999 14.2414V18.495C58.9999 20.657 57.9077 22.3295 55.7234 23.5124C54.9811 23.8266 54.1846 23.9923 53.3788 24C51.1828 24 49.4869 22.8896 48.2911 20.6688C48 19.981 47.8486 19.242 47.8457 18.495V14.3119C47.8313 13.9799 47.7089 13.6619 47.4972 13.4062C47.2855 13.1505 46.9962 12.9713 46.6734 12.896C46.5859 12.8114 46.5248 12.7033 46.4976 12.5846C47.3533 11.9971 47.7812 11.5094 47.7812 11.1628C47.8087 11.0175 47.8224 10.87 47.8222 10.7222V5.39927C47.8222 3.44088 48.8265 1.84284 50.835 0.60514C51.5544 0.233392 52.3472 0.0266879 53.1561 0ZM51.298 5.54615V10.7868C51.298 11.4135 50.9073 11.9011 50.1258 12.2497L49.9968 12.4259V12.5141C50.2724 12.7784 50.5843 13.002 50.9229 13.178C51.053 13.3053 51.1555 13.4582 51.2241 13.627C51.2926 13.7958 51.3258 13.9769 51.3215 14.1591V18.3246C51.3132 18.7731 51.458 19.211 51.732 19.5658C52.0059 19.9205 52.3926 20.1708 52.8279 20.2751C52.9421 20.3081 53.0607 20.3239 53.1796 20.3221H53.6074C54.0643 20.276 54.4851 20.0524 54.7797 19.6994C55.1259 19.3265 55.3149 18.8339 55.3072 18.3246V14.3119C55.3056 13.961 55.1904 13.6202 54.979 13.3405C54.7676 13.0608 54.4715 12.8574 54.135 12.7608C54.135 12.7021 54.047 12.6433 53.9122 12.5846C53.9122 12.4083 54.1643 12.1968 54.6625 11.9618C54.8638 11.8264 55.0269 11.6411 55.1357 11.4239C55.2446 11.2067 55.2956 10.9649 55.2838 10.7222V5.57552C55.3015 5.10619 55.1502 4.64613 54.8575 4.27938C54.5648 3.91263 54.1502 3.66367 53.6895 3.57797L53.2499 3.53684C52.2886 3.53684 51.6439 4.0656 51.3039 5.12901C51.2902 5.26763 51.2882 5.40719 51.298 5.54615Z" fill="#181245"/>
</svg>
