<svg xmlns="http://www.w3.org/2000/svg" id="Layer_1" viewBox="0 0 358 116.01"><g id="Layer_2"><g id="Layer_1-2"><path d="M326,23c-10.67,0-20.35,3.46-27.25,11.49-4.26-6.75-11.65-11.49-23.96-11.49-7.86,0-14.2,2.33-18.77,5.72v20.19c2.7-3.19,6.71-5,10.89-4.91,9.36,0,12.8,6.89,12.8,14.94v56h25.44V61.38c0-12,6.9-17.4,14.61-17.4,9.36,0,13,6.89,13,14.94v56h25.24V53c0-17.56-11.49-30-32-30" style="fill:#ffffff;"></path><path d="M251.83,32.65h0v-8.53h-24.96V114.88h25V32.65" style="fill:#ffffff;"></path><path d="M179.29,23v19.89c7.3,.52,14,4.93,14.89,15.37h-34.18c.81-8.01,7.1-14.36,15.1-15.26V23c-24.78,1.16-42.3,19.4-42.3,46.55s14.95,45.24,42.3,46.39v-20.57c-11.74-1.28-15.88-11-15.88-20.37h62.37v-3.12c0-28.3-15.14-48.08-42.3-48.87" style="fill:#ffffff;"></path><path d="M179.29,95.47v20.53c30-.66,39.37-20.67,40.66-31.81h-24.95c-.32,2.83-3.81,10.62-15.71,11.28" style="fill:#ffffff;"></path><path d="M38.85,97.37c-7.4-.59-13.42-3.53-13.42-11.21H0c0,4.69,2.08,29.19,38.85,29.84v-18.63" style="fill:#ffffff;"></path><path d="M132.28,44.48V24.12h-19.69V0h-25V86.16c0,4.69,2.08,29.19,38.84,29.85v-20.57c-7.39-.58-13.4-1.6-13.89-9.28V44.48h19.69" style="fill:#ffffff;"></path><path d="M43,41.48c7.25,.65,12,3.98,12,9.52h24.76c0-6.9-3.46-27.12-36.72-28v18.48" style="fill:#ffffff;"></path><path d="M27.08,49.56c0-5.74,5.84-7.86,11.77-8.16V23C18.06,23.54,1.85,33.2,1.85,51.37c-.04,21.17,17.02,25.63,36.55,28.23l4.92,.65c7.06,1,13.62,2.46,13.62,8,0,6.24-6.37,8.92-13.9,9.17v18.58c31.73-.85,39.51-16.91,39.51-30.49,0-36.6-55.47-22-55.47-35.94" style="fill:#ffffff;"></path></g></g></svg>