<?xml version="1.0" encoding="utf-8"?>
<svg viewBox="-2.074 -8.851 66.202 71.795" xmlns="http://www.w3.org/2000/svg">
  <g id="Group_55" data-name="Group 55" transform="matrix(1, 0, 0, 1, 3.033879, -2.814096)">
    <path id="Path_22" data-name="Path 22" d="M380.27,268.345a48.9,48.9,0,0,0-48.627,44.486,152.908,152.908,0,0,1,15.885-18.308,1.252,1.252,0,1,1,1.79,1.751c-.976.992-1.964,2.021-2.96,3.064q-.854.893-1.67,1.767c-.1.107-.2.216-.3.323-8,8.563-13.712,16.017-17.863,25.272a1.253,1.253,0,0,0,.627,1.655,1.259,1.259,0,0,0,1.66-.629,68.4,68.4,0,0,1,5.122-9.321A48.818,48.818,0,0,0,375.7,292.737a1.251,1.251,0,0,0-1.1-1.846h-4.64l8.32-4.754a1.258,1.258,0,0,0,.563-.679,48.676,48.676,0,0,0,2.685-15.858,1.255,1.255,0,0,0-1.253-1.255" transform="translate(-326.414 -268.345)" style="fill: rgb(52, 52, 127);"/>
  </g>
</svg>