<?xml version="1.0" encoding="utf-8"?>
<svg viewBox="96.559 -1.861 50.05 44.469" fill="none" xmlns="http://www.w3.org/2000/svg">
  <defs>
    <clipPath id="clip0">
      <rect id="rect80" width="144" height="48" x="0" y="0" fill="#fff"/>
    </clipPath>
    <linearGradient id="paint0_linear" x1="137.744" x2="132.952" y1="6.293" y2="36.8" gradientUnits="userSpaceOnUse">
      <stop id="stop24" stop-color="#FA3B3B"/>
      <stop id="stop26" offset="1" stop-color="#FF6043"/>
    </linearGradient>
    <linearGradient id="paint1_linear" x1="100.558" x2="112.741" y1="13.213" y2="13.213" gradientUnits="userSpaceOnUse">
      <stop id="stop29" stop-color="#37395B"/>
      <stop id="stop31" offset="0.352" stop-color="#522A52"/>
      <stop id="stop33" offset="1" stop-color="#8E0A3D"/>
    </linearGradient>
    <linearGradient id="paint2_linear" x1="108.225" x2="112.413" y1="19.991" y2="19.991" gradientUnits="userSpaceOnUse">
      <stop id="stop36" stop-color="#701B48"/>
      <stop id="stop38" offset="0.456" stop-color="#7B1544"/>
      <stop id="stop40" offset="1" stop-color="#8E0A3D"/>
    </linearGradient>
    <linearGradient id="paint3_linear" x1="110.299" x2="110.299" y1="37.877" y2="2.106" gradientUnits="userSpaceOnUse">
      <stop id="stop43" stop-color="#8E0A3D"/>
      <stop id="stop45" offset="0.03" stop-color="#8E0A3D"/>
      <stop id="stop47" offset="1" stop-color="#8E0A3D"/>
    </linearGradient>
    <linearGradient id="paint4_linear" x1="119.94" x2="119.94" y1="37.858" y2="5.272" gradientUnits="userSpaceOnUse">
      <stop id="stop50" stop-color="#8E0A3D"/>
      <stop id="stop52" offset="0.256" stop-color="#910B3D"/>
      <stop id="stop54" offset="0.44" stop-color="#9A103D"/>
      <stop id="stop56" offset="0.601" stop-color="#AA173C"/>
      <stop id="stop58" offset="0.749" stop-color="#C0213C"/>
      <stop id="stop60" offset="0.887" stop-color="#DC2E3C"/>
      <stop id="stop62" offset="1" stop-color="#FA3B3B"/>
    </linearGradient>
    <linearGradient id="paint5_linear" x1="119.998" x2="130.442" y1="18.07" y2="36.31" gradientUnits="userSpaceOnUse">
      <stop id="stop65" stop-color="#FF9E00"/>
      <stop id="stop67" offset="0.198" stop-color="#FF8C13"/>
      <stop id="stop69" offset="0.507" stop-color="#FF732E"/>
      <stop id="stop71" offset="0.509" stop-color="#FF722F"/>
      <stop id="stop73" offset="0.577" stop-color="#FF683A"/>
      <stop id="stop75" offset="0.671" stop-color="#FF6241"/>
      <stop id="stop77" offset="0.933" stop-color="#FF6043"/>
    </linearGradient>
  </defs>
  <g id="g22" clip-path="url(#clip0)">
    <path id="path2" fill="#37395b" d="m 10.0226,30.4669 c 0.333,0.3862 0.497,0.8944 0.497,1.5246 0,0.7725 -0.4253,1.423 -1.27589,1.9515 -0.85058,0.5286 -1.80877,0.7928 -2.87969,0.7928 -1.78828,0 -3.29986,-0.3811 -4.5245,-1.1384 C 0.614881,32.8402 0,31.2343 0,28.7695 V 9.02571 C 0,8.28373 0.251076,7.65863 0.758353,7.16059 1.26051,6.65747 1.89076,6.40845 2.64399,6.40845 c 0.72248,0 1.32712,0.24902 1.81902,0.75214 0.49191,0.49804 0.73786,1.12314 0.73786,1.86512 V 12.202 h 3.0744 c 0.69174,0 1.27076,0.2287 1.73193,0.6861 0.4611,0.4574 0.6917,1.0316 0.6917,1.7177 0,0.6607 -0.2306,1.2095 -0.6917,1.6517 -0.46117,0.4472 -1.04019,0.6657 -1.73193,0.6657 H 5.20087 V 28.556 c 0,0.5997 0.15884,1.0368 0.47653,1.3112 0.31769,0.2744 0.75323,0.4066 1.29637,0.4066 0.23059,0 0.54827,-0.0559 0.95307,-0.1728 0.34331,-0.1423 0.67637,-0.2135 0.99406,-0.2135 0.39967,0 0.7686,0.1932 1.1017,0.5794 z"/>
    <path id="path4" fill="#37395b" d="m 35.9244,29.0084 c -1.0402,1.8194 -2.4596,3.2271 -4.2632,4.2282 -1.8037,1.0012 -3.7866,1.5043 -5.949,1.5043 -2.1931,0 -4.1863,-0.498 -5.9746,-1.5043 -1.7882,-1.0011 -3.2025,-2.4088 -4.2426,-4.2282 -1.0402,-1.8194 -1.5577,-3.8726 -1.5577,-6.1595 0,-2.2869 0.5175,-4.3401 1.5577,-6.1594 1.0401,-1.8194 2.4492,-3.2322 4.2426,-4.2486 1.7883,-1.0164 3.7815,-1.5246 5.9746,-1.5246 2.1624,0 4.1453,0.5082 5.949,1.5246 1.8036,1.0164 3.223,2.4343 4.2632,4.2486 1.0401,1.8193 1.5577,3.8725 1.5577,6.1594 0.0051,2.2869 -0.5176,4.3401 -1.5577,6.1595 z M 31.405,19.0933 c -0.5893,-1.1028 -1.3835,-1.9515 -2.3827,-2.5563 -0.994,-0.5997 -2.1008,-0.9046 -3.3101,-0.9046 -1.2144,0 -2.316,0.2998 -3.3101,0.9046 -0.994,0.5997 -1.7883,1.4535 -2.3826,2.5563 -0.5893,1.1028 -0.8865,2.353 -0.8865,3.7556 0,1.4027 0.2972,2.6478 0.8865,3.7353 0.5892,1.0876 1.3834,1.9312 2.3826,2.5309 0.9941,0.5997 2.1009,0.8995 3.3101,0.8995 1.2144,0 2.3161,-0.2998 3.3101,-0.8995 0.9941,-0.5997 1.7883,-1.4433 2.3827,-2.5309 0.5893,-1.0875 0.8865,-2.3326 0.8865,-3.7353 0,-1.4026 -0.2972,-2.6579 -0.8865,-3.7556 z"/>
    <path id="path6" fill="#37395b" d="m 89.8289,29.0084 c -1.0402,1.8194 -2.4595,3.2271 -4.2632,4.2282 -1.8036,1.0012 -3.7866,1.5043 -5.9489,1.5043 -2.1931,0 -4.1863,-0.498 -5.9746,-1.5043 -1.7883,-1.0011 -3.2025,-2.4088 -4.2427,-4.2282 -1.0402,-1.8194 -1.5577,-3.8726 -1.5577,-6.1595 0,-2.2869 0.5175,-4.3401 1.5577,-6.1594 1.0402,-1.8194 2.4544,-3.2322 4.2427,-4.2486 1.7883,-1.0164 3.7815,-1.5246 5.9746,-1.5246 2.1623,0 4.1504,0.5082 5.9489,1.5246 1.8037,1.0164 3.223,2.4343 4.2632,4.2486 1.0402,1.8193 1.5577,3.8725 1.5577,6.1594 0,2.2869 -0.5175,4.3401 -1.5577,6.1595 z m -4.5245,-9.9151 c -0.5892,-1.1028 -1.3835,-1.9515 -2.3826,-2.5563 -0.9941,-0.5997 -2.1009,-0.9046 -3.3102,-0.9046 -1.2092,0 -2.316,0.2998 -3.3101,0.9046 -0.994,0.5997 -1.7882,1.4535 -2.3826,2.5563 -0.5893,1.1028 -0.8865,2.353 -0.8865,3.7556 0,1.4027 0.2972,2.6478 0.8865,3.7353 0.5892,1.0876 1.3835,1.9312 2.3826,2.5309 0.9941,0.5997 2.1009,0.8995 3.3101,0.8995 1.2144,0 2.3161,-0.2998 3.3102,-0.8995 0.994,-0.5997 1.7882,-1.4433 2.3826,-2.5309 0.5893,-1.0875 0.8865,-2.3326 0.8865,-3.7353 0.0051,-1.4026 -0.2921,-2.6579 -0.8865,-3.7556 z"/>
    <path id="path8" fill="#37395b" d="m 63.5941,7.15546 c -0.4919,-0.50312 -1.0966,-0.75214 -1.819,-0.75214 -0.7533,0 -1.3784,0.24902 -1.8806,0.75214 -0.5072,0.49805 -0.7583,1.12314 -0.7583,1.86512 v 3.68452 c -0.205,-0.1322 -0.4151,-0.2592 -0.6251,-0.3812 -1.8037,-1.0164 -3.7867,-1.5246 -5.9541,-1.5246 -2.1931,0 -4.1864,0.5082 -5.9746,1.5246 -1.7883,1.0164 -3.2025,2.4343 -4.2427,4.2486 -1.0402,1.8194 -1.5577,3.8725 -1.5577,6.1595 0,2.292 0.5226,4.3451 1.5577,6.1594 1.0402,1.8194 2.4544,3.2271 4.2427,4.2283 1.7882,1.0011 3.7815,1.5043 5.9746,1.5043 2.1623,0 4.1504,-0.5032 5.9541,-1.5043 1.8036,-1.0012 3.223,-2.4089 4.2631,-4.2283 0.3536,-0.6098 0.6354,-1.2502 0.866,-1.9159 0.456,-1.3112 0.6917,-2.724 0.6917,-4.2435 V 12.5983 9.02058 c 0,-0.74198 -0.2459,-1.36199 -0.7378,-1.86512 z M 58.2497,26.4724 c -0.5944,1.0875 -1.3834,1.9311 -2.3826,2.5359 -0.9941,0.5997 -2.1009,0.9046 -3.3101,0.9046 -1.2144,0 -2.3161,-0.2998 -3.3102,-0.9046 -0.994,-0.5997 -1.7882,-1.4433 -2.3826,-2.5359 -0.5893,-1.0876 -0.8865,-2.3327 -0.8865,-3.7354 0,-1.4026 0.2972,-2.6579 0.8865,-3.7556 0.5892,-1.1028 1.3835,-1.9515 2.3826,-2.5563 0.9941,-0.5997 2.1009,-0.8995 3.3102,-0.8995 1.2143,0 2.316,0.2998 3.3101,0.8995 0.994,0.5997 1.7882,1.4535 2.3826,2.5563 0.5893,1.0977 0.8865,2.353 0.8865,3.7556 0,1.4027 -0.2921,2.6478 -0.8865,3.7354 z"/>
    <path id="path10" fill="url(#paint0_linear)" d="m 130.924,38.4051 c 15.3,-2.9476 18.805,-32.32692 1.675,-35.06614 -3.397,-0.54378 -4.857,4.60942 -1.435,5.1532 11.781,1.88544 8.563,22.78284 -1.675,24.75464 -3.408,0.6607 -1.963,5.8139 1.435,5.1583 z"/>
    <path id="path12" fill="url(#paint1_linear)" d="m 109.874,1.55013 c -3.423,7.03865 -7.112,13.97567 -11.1035,20.70937 -1.7678,2.9781 2.8955,5.6665 4.6525,2.6986 3.997,-6.7388 7.681,-13.6708 11.104,-20.7094 1.501,-3.08989 -3.146,-5.8037 -4.653,-2.69857 z"/>
    <path id="path14" fill="url(#paint2_linear)" d="m 108.291,37.3225 c 0.195,0.3151 -0.221,-3.3948 0,-5.5394 1.696,-16.5116 2.777,-22.38647 4.119,-29.14052"/>
    <path id="path16" fill="url(#paint3_linear)" d="m 109.008,39.8992 c 0.01,-0.0051 0.026,-0.0051 0.041,-0.0102 1.225,-0.31 1.886,-1.3925 1.978,-2.5766 0.246,-3.1712 0.036,-6.3221 0.384,-9.5237 0.39,-3.6286 0.805,-7.2521 1.297,-10.8706 0.62,-4.5484 1.414,-9.06635 2.306,-13.56905 0.671,-3.3693997 -4.525,-4.80254 -5.196,-1.42297 -0.938,4.71614 -1.748,9.44242 -2.393,14.20432 -0.487,3.5676 -0.907,7.1454 -1.302,10.7282 -0.225,2.0633 -0.527,4.1368 -0.584,6.2154 -0.041,1.4077 0.21,2.8358 0.103,4.2384 0.661,-0.8588 1.317,-1.7177 1.978,-2.5766 -0.016,0.0051 -0.026,0.0051 -0.041,0.0102 -3.367,0.8589 -1.942,6.0121 1.429,5.1532 z"/>
    <path id="path18" fill="url(#paint4_linear)" d="M 131.882,3.2423 C 114.419,1.50424 103.9,22.4779 105.596,37.3226 c 0.384,3.3846 5.78,3.4253 5.39,0 -1.373,-12.0394 6.292,-30.18236 20.896,-28.73398 3.459,0.34558 3.423,-5.00582 0,-5.34632 z"/>
    <path id="path20" fill="url(#paint5_linear)" d="m 122.32,14.6771 c -3.33,4.5535 -4.596,10.098 -3.525,15.6222 1.061,5.4734 5.852,8.8072 11.416,8.2024 3.418,-0.371 3.454,-5.7224 0,-5.3463 -9.371,1.0164 -6.564,-11.2262 -3.233,-15.7798 2.039,-2.7951 -2.639,-5.4581 -4.658,-2.6985 z"/>
  </g>
</svg>