<?xml version="1.0" encoding="utf-8"?>
<svg viewBox="0 -0.665 294.845 74.278" xmlns="http://www.w3.org/2000/svg">
  <path d="M 2.272 38.236 C 2.342 55.836 16.672 70.246 34.282 70.246 C 51.948 70.224 66.265 55.912 66.292 38.246 L 66.292 33.706 C 66.345 23.545 77.378 17.251 86.151 22.377 C 87.501 23.166 88.7 24.188 89.692 25.396 L 110.392 25.396 C 106.611 11.428 93.943 1.723 79.472 1.706 C 61.807 1.734 47.494 16.051 47.472 33.716 L 47.472 38.236 C 47.461 45.519 41.555 51.416 34.272 51.416 C 26.998 51.405 21.103 45.511 21.092 38.236 C 21.092 36.154 19.404 34.466 17.322 34.466 L 6.032 34.466 C 3.954 34.472 2.272 36.158 2.272 38.236 Z M 124.762 70.246 C 110.308 70.191 97.668 60.494 93.872 46.546 L 114.542 46.546 C 120.906 54.429 133.416 52.468 137.061 43.015 C 137.648 41.494 137.947 39.877 137.942 38.246 L 137.942 33.706 C 137.97 16.041 152.287 1.728 169.952 1.706 C 187.382 1.706 201.592 15.706 201.952 33.036 L 202.052 38.236 C 202.105 48.398 213.138 54.691 221.911 49.565 C 223.261 48.777 224.46 47.754 225.452 46.546 L 246.152 46.546 C 242.376 60.515 229.713 70.225 215.242 70.246 C 197.632 70.246 183.302 55.826 183.232 38.246 L 183.132 33.546 L 183.132 33.346 C 182.922 26.217 177.085 20.544 169.952 20.536 C 162.678 20.547 156.783 26.442 156.772 33.716 L 156.772 38.236 C 156.75 55.906 142.432 70.224 124.762 70.246 Z M 250.212 25.406 C 256.575 17.524 269.086 19.485 272.731 28.937 C 273.319 30.462 273.618 32.082 273.612 33.716 C 273.612 35.798 275.3 37.486 277.382 37.486 L 288.682 37.486 C 290.761 37.481 292.442 35.795 292.442 33.716 C 292.42 16.047 278.102 1.728 260.432 1.706 C 245.958 1.724 233.29 11.434 229.512 25.406 L 250.212 25.406 Z" style=""/>
</svg>