<?xml version="1.0" encoding="UTF-8"?><svg id="Layer_1" xmlns="http://www.w3.org/2000/svg" xmlns:xlink="http://www.w3.org/1999/xlink" viewBox="0 0 241 237"><defs><style>.cls-1{fill:url(#linear-gradient);}.cls-2{fill:#666;}.cls-3{fill:url(#linear-gradient-3);}.cls-4{fill:url(#linear-gradient-2);}</style><linearGradient id="linear-gradient" x1="-3.07" y1="122.04" x2="89.01" y2="29.96" gradientTransform="matrix(1, 0, 0, 1, 0, 0)" gradientUnits="userSpaceOnUse"><stop offset="0" stop-color="#fa923c"/><stop offset="1" stop-color="#fbcd15"/></linearGradient><linearGradient id="linear-gradient-2" x1="88.21" y1="80.79" x2="152.79" y2="16.21" gradientTransform="matrix(1, 0, 0, 1, 0, 0)" gradientUnits="userSpaceOnUse"><stop offset="0" stop-color="#ed4899"/><stop offset="1" stop-color="#fa923c"/></linearGradient><linearGradient id="linear-gradient-3" x1="12.43" y1="220.54" x2="73.51" y2="159.46" gradientTransform="matrix(1, 0, 0, 1, 0, 0)" gradientUnits="userSpaceOnUse"><stop offset="0" stop-color="#2dd5bf"/><stop offset=".99" stop-color="#a3e636"/></linearGradient></defs><rect class="cls-1" x="11" y="11" width="63.94" height="130" rx="8.35" ry="8.35"/><rect class="cls-4" x="88.53" y="11" width="63.94" height="75" rx="8.35" ry="8.35"/><path class="cls-2" d="M201.65,11h-10c-.55,0-1,.45-1,1s.45,1,1,1h10c.55,0,1-.45,1-1s-.45-1-1-1h0Zm-20,0h-7.73v.02h-.21v.02h-.16v.02h-.14v.02h-.1l-.03,.02h-.09l-.03,.02h-.03s-.1,.02-.15,.03h0c-.44,.08-.87,.19-1.28,.33-.52,.18-.8,.75-.62,1.27,.14,.41,.53,.68,.95,.68,.11,0,.22-.02,.32-.05,.66-.23,1.36-.34,2.07-.34h7.23c.55,0,1-.45,1-1s-.45-1-1-1h0Zm-14.58,7.04c-.53,0-.97,.42-1,.95,0,.08,0,.17,0,.25h0v.02h0v.02h0v.02h0v.02h0v.02h0v.02h0v9.64c0,.55,.45,1,1,1s1-.45,1-1v-9.64c0-.09,0-.18,0-.27,.02-.55-.41-1.02-.96-1.04h-.04Zm0,19.96c-.55,0-1,.45-1,1v10c0,.55,.45,1,1,1s1-.45,1-1v-10c0-.55-.45-1-1-1h0Zm0,20c-.55,0-1,.45-1,1v10c0,.55,.45,1,1,1s1-.45,1-1v-10c0-.55-.45-1-1-1h0Zm0,20c-.55,0-1,.45-1,1v10c0,.55,.45,1,1,1s1-.45,1-1v-10c0-.55-.45-1-1-1h0Zm0,20c-.55,0-1,.45-1,1v10c0,.55,.45,1,1,1s1-.45,1-1v-10c0-.55-.45-1-1-1h0Zm.29,19.69c-.09,0-.18,.01-.28,.04-.53,.15-.84,.7-.68,1.23,.12,.43,.28,.84,.47,1.24h0v.02h0v.02h.01v.02h0v.02h0v.03h0v.02h.01v.02h0v.02h0v.02h0v.02h0v.02h0v.02h0v.02h0v.02h0v.02h0v.02h0v.02h0v.02h0v.02h0v.02h0v.02h0v.02h0v.02h0v.02h0v.02h0v.02h0v.02h0v.02h0v.02h.01v.02h0v.02h0v.02h0v.02h0v.02h0v.02h0v.02h.01v.02h0v.02h.01v.02h0v.02h0v.02h0v.02h0v.02h0v.02h0v.02h0v.02h.01v.02h0v.02h.01v.02h0v.02h.02v.02h.01v.02h.01v.02h.01v.02h.01v.02h.01v.02h.02v.02h.01v.02h.01v.02h.01v.02h.01v.02h.01v.02h.01v.02h.02v.02h.01v.02h.01v.02h.01v.02h.01v.02h.01v.02h.01v.02h.02v.02h.01v.02h.01v.02h.01v.02h.01v.02h.02v.02h.01v.02h.01v.02h.01l.02,.03h0v.02h.01v.02h.02v.02h.01l.02,.04h0v.02h.01v.02h.02v.02h.01v.02h.02v.02h0v.02h.01v.02h.01v.02h.01l.02,.03h.01v.02h0v.02h.01v.02h.01v.02h.02v.02h0v.02h.02v.02h.01v.03h.02v.02h.01v.02h.02v.02h.01v.03h.02v.02h.01v.02h.02v.02h.01v.02h.01v.02h.02v.02h.01v.02h.02v.02h.01v.02h.02v.02h0v.02h.02v.02h.01v.02h.02v.02h.01v.02h.01v.02h.02v.02h.01v.02h.02v.02h.02v.02h.02v.02h.01v.02h.02v.02h.02v.02h.02v.02h.02v.02h.02v.02h.02v.02h.02v.02h.02v.02h.02v.02h.02v.02h.02v.02h.02v.02h.02v.02h.02v.02h.02v.02h.02v.02h.02v.02h.02v.02h.02v.02h.02v.02h.02v.02h.02v.02h.02v.02h.02v.02h.02v.02h.03v.03h.03v.03h.02v.02h.03v.02h.03l.03,.04h0c1.27,1.08,2.87,1.78,4.62,1.94,.03,0,.06,0,.09,0,.51,0,.95-.39,.99-.91,.05-.55-.35-1.04-.9-1.09-2.58-.24-4.8-2.07-5.52-4.56-.13-.44-.53-.72-.96-.72h0Zm26.29,5.31h-10c-.55,0-1,.45-1,1s.45,1,1,1h10c.55,0,1-.45,1-1s-.45-1-1-1h0Zm20,0h-10c-.55,0-1,.45-1,1s.45,1,1,1h10c.55,0,1-.45,1-1s-.45-1-1-1h0Zm15.29-6.36c-.49,0-.92,.36-.99,.87-.35,2.57-2.27,4.7-4.79,5.31-.54,.13-.87,.67-.74,1.21,.11,.46,.52,.76,.97,.76,.08,0,.15,0,.23-.03,.41-.1,.8-.23,1.18-.38h.04l.02-.02h.04v-.02h.04v-.02h.04v-.02h.04v-.02h.04v-.02h.04v-.02h.04v-.02h.03v-.02h.04v-.02h.03l.02-.02h.02l.02-.02h.02c1.63-.8,2.97-2.1,3.8-3.71h0l.03-.06h0v-.02h0l.03-.06h0v-.02h0v-.02h0v-.02h0v-.02h0v-.02h0v-.03h.01v-.02h0v-.02h0v-.02h0v-.02h0v-.03h.01v-.02h0v-.02h0v-.02h0v-.02h0l.02-.04h0l.02-.04h0v-.02h0v-.02h0v-.02h0l.03-.06h0v-.02h0l.03-.06h0v-.02h0v-.02h0l.03-.08h0v-.02h0v-.02h0v-.02h0v-.02h0c.22-.58,.37-1.18,.46-1.81,.07-.55-.31-1.05-.86-1.12-.05,0-.09,0-.14,0h0Zm.07-19.86c-.55,0-1,.45-1,1v10c0,.55,.45,1,1,1s1-.45,1-1v-10c0-.55-.45-1-1-1h0Zm0-20c-.55,0-1,.45-1,1v10c0,.55,.45,1,1,1s1-.45,1-1v-10c0-.55-.45-1-1-1h0Zm0-20c-.55,0-1,.45-1,1v10c0,.55,.45,1,1,1s1-.45,1-1v-10c0-.55-.45-1-1-1h0Zm0-20c-.55,0-1,.45-1,1v10c0,.55,.45,1,1,1s1-.45,1-1v-10c0-.55-.45-1-1-1h0Zm-.13-19.8c-.06,0-.12,0-.19,.02-.54,.1-.9,.63-.8,1.17,.07,.39,.11,.79,.11,1.19v8.43c0,.55,.45,1,1,1s1-.45,1-1v-8.43h0v-.02h0v-.03h0v-.03h0v-.02h0v-.03h0v-.03h0v-.03h0v-.02h0v-.03h0v-.03h0v-.02h0v-.02h0c-.02-.44-.06-.86-.14-1.27-.09-.48-.51-.81-.98-.81h0Zm-7.23-5.97h-10c-.55,0-1,.45-1,1s.45,1,1,1h10c.39,0,.79,.04,1.17,.11,.06,.01,.12,.02,.18,.02,.47,0,.89-.34,.98-.82,.1-.54-.26-1.06-.8-1.17-.12-.02-.24-.04-.36-.06h-.1v-.02h-.13v-.02h-.15v-.02h-.18v-.02h-.28v-.02h-.33Z"/><rect class="cls-3" x="11" y="156" width="63.94" height="68" rx="8.35" ry="8.35"/></svg>