<?xml version="1.0" encoding="UTF-8"?><svg id="Layer_1" xmlns="http://www.w3.org/2000/svg" xmlns:xlink="http://www.w3.org/1999/xlink" viewBox="0 0 221.89 170.67"><defs><style>.cls-1{fill:url(#linear-gradient);}.cls-2{fill:url(#linear-gradient-3);}.cls-3{fill:url(#linear-gradient-4);}.cls-4{fill:url(#linear-gradient-2);}.cls-5{fill:url(#linear-gradient-5);}</style><linearGradient id="linear-gradient" x1="-8.05" y1="138.05" x2="64.05" y2="65.95" gradientTransform="matrix(1, 0, 0, 1, 0, 0)" gradientUnits="userSpaceOnUse"><stop offset="0" stop-color="#bfdbfe"/><stop offset="1" stop-color="#dcebfe"/></linearGradient><linearGradient id="linear-gradient-2" x1="56.45" y1="149.55" x2="151.55" y2="54.45" gradientTransform="matrix(1, 0, 0, 1, 0, 0)" gradientUnits="userSpaceOnUse"><stop offset="0" stop-color="#ed4899"/><stop offset="1" stop-color="#fa923c"/></linearGradient><linearGradient id="linear-gradient-3" x1="146.45" y1="141.55" x2="225.55" y2="62.45" gradientTransform="matrix(1, 0, 0, 1, 0, 0)" gradientUnits="userSpaceOnUse"><stop offset="0" stop-color="#fa923c"/><stop offset="1" stop-color="#fbcd15"/></linearGradient><linearGradient id="linear-gradient-4" x1="7.5" y1="21.5" x2="213.5" y2="21.5" gradientTransform="matrix(1, 0, 0, 1, 0, 0)" gradientUnits="userSpaceOnUse"><stop offset="0" stop-color="#f2f2f2" stop-opacity="0"/><stop offset="0" stop-color="#eff1f1" stop-opacity="0"/><stop offset=".1" stop-color="#b7e9e3" stop-opacity=".24"/><stop offset=".2" stop-color="#87e2d7" stop-opacity=".44"/><stop offset=".31" stop-color="#5ddccd" stop-opacity=".61"/><stop offset=".42" stop-color="#3bd7c5" stop-opacity=".75"/><stop offset=".53" stop-color="#21d3bf" stop-opacity=".86"/><stop offset=".66" stop-color="#0ed1ba" stop-opacity=".94"/><stop offset=".8" stop-color="#03cfb7" stop-opacity=".99"/><stop offset="1" stop-color="#00cfb7"/></linearGradient><linearGradient id="linear-gradient-5" x1="145.85" y1="38.65" x2="180.15" y2="4.35" gradientTransform="translate(184.5 -141.5) rotate(90)" gradientUnits="userSpaceOnUse"><stop offset="0" stop-color="#38bdf8"/><stop offset=".99" stop-color="#34d399"/></linearGradient></defs><rect class="cls-1" x="9" y="44" width="38" height="116" rx="8.35" ry="8.35"/><rect class="cls-4" x="62" y="44" width="84" height="116" rx="8.35" ry="8.35" transform="translate(-11.18 12.82) rotate(-6.7)"/><rect class="cls-2" x="160" y="44" width="52" height="116" rx="8.35" ry="8.35"/><path class="cls-3" d="M206.54,12c3.02,0,5.46,2.44,5.46,5.46v8.08c0,3.02-2.44,5.46-5.46,5.46H14.46c-3.02,0-5.46-2.44-5.46-5.46v-8.08c0-3.02,2.44-5.46,5.46-5.46H206.54m0-1.5H14.46c-3.84,0-6.96,3.12-6.96,6.96v8.08c0,3.84,3.12,6.96,6.96,6.96H206.54c3.84,0,6.96-3.12,6.96-6.96v-8.08c0-3.84-3.12-6.96-6.96-6.96h0Z"/><rect class="cls-5" x="153.5" y="-6.5" width="19" height="56" rx="5.46" ry="5.46" transform="translate(141.5 184.5) rotate(-90)"/></svg>