<?xml version="1.0" encoding="UTF-8"?><svg id="Layer_1" xmlns="http://www.w3.org/2000/svg" xmlns:xlink="http://www.w3.org/1999/xlink" viewBox="0 0 251.2 147.16"><defs><style>.cls-1{fill:url(#linear-gradient);}.cls-2{fill:url(#linear-gradient-3);}.cls-3{fill:url(#linear-gradient-4);}.cls-4{fill:url(#linear-gradient-2);}.cls-5{fill:url(#linear-gradient-5);}</style><linearGradient id="linear-gradient" x1="8.67" y1="69.14" x2="178.66" y2="69.14" gradientTransform="matrix(1, 0, 0, 1, 0, 0)" gradientUnits="userSpaceOnUse"><stop offset="0" stop-color="#fa923c"/><stop offset="1" stop-color="#fbcd15"/></linearGradient><linearGradient id="linear-gradient-2" x1="200.53" y1="130" x2="244.53" y2="130" gradientTransform="matrix(1, 0, 0, 1, 0, 0)" gradientUnits="userSpaceOnUse"><stop offset="0" stop-color="#ed4899"/><stop offset="1" stop-color="#fa923c"/></linearGradient><linearGradient id="linear-gradient-3" x1="201.53" y1="61" x2="221.53" y2="61" gradientTransform="matrix(1, 0, 0, 1, 0, 0)" gradientUnits="userSpaceOnUse"><stop offset="0" stop-color="#bfdbfe"/><stop offset="1" stop-color="#dcebfe"/></linearGradient><linearGradient id="linear-gradient-4" x1="108.88" y1="130.34" x2="203.71" y2="35.51" gradientTransform="matrix(1, 0, 0, 1, 0, 0)" gradientUnits="userSpaceOnUse"><stop offset="0" stop-color="#38bdf8"/><stop offset="1" stop-color="#34d399"/></linearGradient><linearGradient id="linear-gradient-5" x1="213.53" y1="91" x2="236.53" y2="91" xlink:href="#linear-gradient-3"/></defs><path class="cls-1" d="M177.3,21.07c2.1-1.39,1.71-4.57-.65-5.43-13.44-4.94-27.96-7.63-43.11-7.63C66.49,8,11.78,60.77,8.67,127.04c-.12,2.52,2.65,4.11,4.75,2.72L177.3,21.07Z"/><path class="cls-4" d="M239.53,135h-34c-2.76,0-5-2.24-5-5s2.24-5,5-5h34c2.76,0,5,2.24,5,5s-2.24,5-5,5Z"/><path class="cls-2" d="M205.53,69c-1.29,0-2.56-.63-3.33-1.78-1.23-1.84-.73-4.32,1.11-5.55l12-8c1.84-1.23,4.32-.73,5.55,1.11,1.23,1.84,.73,4.32-1.11,5.55l-12,8c-.68,.45-1.45,.67-2.21,.67Z"/><path class="cls-3" d="M116.95,138.28h0c-3.57-2.64-4.35-7.66-1.76-11.26L189.16,24.29c1.76-2.1,4.98,.34,3.44,2.61l-63.83,108.96c-2.44,4.16-7.94,5.29-11.82,2.42Z"/><path class="cls-5" d="M217.53,97c-1.77,0-3.39-1.18-3.86-2.97-.57-2.13,.7-4.33,2.83-4.9l15-4c2.14-.57,4.33,.7,4.9,2.83,.57,2.13-.7,4.33-2.83,4.9l-15,4c-.35,.09-.69,.14-1.03,.14Z"/></svg>